<svg width="25" height="24" viewBox="0 0 25 24" fill="none" xmlns="http://www.w3.org/2000/svg">
<path d="M24.9982 11.9478C24.9868 11.7608 24.9114 11.583 24.7842 11.4428L14.512 0.298658C14.4382 0.212833 14.3476 0.142359 14.2454 0.0914173C14.1432 0.0404758 14.0316 0.0101108 13.9171 0.00212665C13.8027 -0.0058575 13.6878 0.00869939 13.5792 0.0449352C13.4706 0.081171 13.3706 0.138346 13.2851 0.213062C13.1997 0.287779 13.1304 0.37851 13.0815 0.479868C13.0327 0.581226 13.0052 0.691143 13.0007 0.803083C12.9962 0.915024 13.0148 1.02671 13.0553 1.13149C13.0959 1.23628 13.1576 1.33204 13.2369 1.41307L22.9919 12L13.2369 22.5869C13.1576 22.668 13.0959 22.7637 13.0553 22.8685C13.0148 22.9733 12.9962 23.085 13.0007 23.1969C13.0052 23.3089 13.0327 23.4188 13.0815 23.5201C13.1304 23.6215 13.1997 23.7122 13.2851 23.7869C13.3706 23.8617 13.4706 23.9188 13.5792 23.9551C13.6878 23.9913 13.8027 24.0059 13.9171 23.9979C14.0316 23.9899 14.1432 23.9595 14.2454 23.9086C14.3476 23.8576 14.4382 23.7872 14.512 23.7013L24.7842 12.5572C24.8594 12.4745 24.917 12.378 24.9537 12.2734C24.9904 12.1688 25.0056 12.0581 24.9982 11.9478Z" fill="#940000"/>
<line x1="1" y1="12" x2="22" y2="12" stroke="#940000" stroke-width="2" stroke-linecap="round"/>
</svg>
