<svg width="61" height="61" viewBox="0 0 61 61" fill="none" xmlns="http://www.w3.org/2000/svg">
<g filter="url(#filter0_d_11_374)">
<path d="M28.5 11C19.9378 11 13 17.9378 13 26.5C13 35.0622 19.9378 42 28.5 42C37.0622 42 44 35.0622 44 26.5C44 17.9378 37.0622 11 28.5 11ZM24.1352 17.2L27.3468 20.7836L25.8526 22.1166L22.641 18.533L24.1352 17.2ZM33.9374 34.9878C32.9144 35.8992 31.4202 36.0666 30.2298 35.3846C28.3202 34.2934 25.9332 32.5946 23.7322 30.0092C21.897 27.8516 20.7066 25.6816 19.9378 23.896C19.3922 22.6374 19.7022 21.1618 20.7314 20.2442L21.99 19.122L25.2326 22.7304C24.8048 23.2574 24.687 23.989 24.9474 24.6338C25.245 25.3778 25.6852 26.2334 26.33 27.1076C26.7702 27.709 27.9606 29.1846 29.9942 30.2882C29.9942 30.2944 30.0004 30.2944 30.0066 30.3006C30.6204 30.6354 31.3582 30.592 31.9348 30.2324L35.196 33.8656L33.9374 34.9878ZM35.8346 33.2766L32.5982 29.662L34.0924 28.329L37.3288 31.9436L35.8346 33.2766Z" fill="black"/>
</g>
<defs>
<filter id="filter0_d_11_374" x="0" y="0" width="61" height="61" filterUnits="userSpaceOnUse" color-interpolation-filters="sRGB">
<feFlood flood-opacity="0" result="BackgroundImageFix"/>
<feColorMatrix in="SourceAlpha" type="matrix" values="0 0 0 0 0 0 0 0 0 0 0 0 0 0 0 0 0 0 127 0" result="hardAlpha"/>
<feOffset dx="2" dy="4"/>
<feGaussianBlur stdDeviation="7.5"/>
<feComposite in2="hardAlpha" operator="out"/>
<feColorMatrix type="matrix" values="0 0 0 0 0 0 0 0 0 0 0 0 0 0 0 0 0 0 0.35 0"/>
<feBlend mode="normal" in2="BackgroundImageFix" result="effect1_dropShadow_11_374"/>
<feBlend mode="normal" in="SourceGraphic" in2="effect1_dropShadow_11_374" result="shape"/>
</filter>
</defs>
</svg>
