<svg width="42" height="36" viewBox="0 0 42 36" fill="none" xmlns="http://www.w3.org/2000/svg">
<g filter="url(#filter0_d_1_35)">
<path d="M21.074 15.9976C21.3389 15.9824 21.5908 15.8819 21.7894 15.7122L37.5769 2.01597C37.6985 1.91765 37.7983 1.79678 37.8705 1.66053C37.9427 1.52428 37.9857 1.37543 37.997 1.22283C38.0083 1.07024 37.9877 0.917012 37.9363 0.772255C37.885 0.627498 37.804 0.494181 37.6982 0.380193C37.5923 0.266206 37.4638 0.173875 37.3202 0.108717C37.1766 0.0435595 37.0209 0.00690763 36.8623 0.000902649C36.7037 -0.00510233 36.5455 0.0196705 36.397 0.0737699C36.2486 0.127869 36.1129 0.210169 35.9981 0.315802L21 13.3225L6.00185 0.315802C5.88706 0.210169 5.7514 0.127869 5.60295 0.0737699C5.4545 0.0196704 5.29628 -0.00512548 5.1377 0.000879428C4.97912 0.00688434 4.8234 0.0435595 4.67981 0.108717C4.53622 0.173875 4.40769 0.266206 4.30184 0.380193C4.19599 0.494181 4.11499 0.627498 4.06366 0.772255C4.01232 0.917013 3.9917 1.07024 4.00301 1.22283C4.01432 1.37543 4.05734 1.52428 4.12951 1.66053C4.20167 1.79678 4.30152 1.91765 4.4231 2.01597L20.2106 15.7122C20.3278 15.8125 20.4644 15.8893 20.6126 15.9383C20.7608 15.9873 20.9177 16.0074 21.074 15.9976Z" fill="black"/>
<path d="M21.074 21.9976C21.3389 21.9824 21.5908 21.8819 21.7894 21.7122L37.5769 8.01597C37.6985 7.91765 37.7983 7.79678 37.8705 7.66053C37.9427 7.52428 37.9857 7.37543 37.997 7.22283C38.0083 7.07024 37.9877 6.91701 37.9363 6.77226C37.885 6.6275 37.804 6.49418 37.6982 6.38019C37.5923 6.26621 37.4638 6.17388 37.3202 6.10872C37.1766 6.04356 37.0209 6.00691 36.8623 6.0009C36.7037 5.9949 36.5455 6.01967 36.397 6.07377C36.2486 6.12787 36.1129 6.21017 35.9981 6.3158L21 19.3225L6.00185 6.3158C5.88706 6.21017 5.7514 6.12787 5.60295 6.07377C5.4545 6.01967 5.29628 5.99487 5.1377 6.00088C4.97912 6.00688 4.8234 6.04356 4.67981 6.10872C4.53622 6.17388 4.40769 6.26621 4.30184 6.38019C4.19599 6.49418 4.11499 6.6275 4.06366 6.77226C4.01232 6.91701 3.9917 7.07024 4.00301 7.22283C4.01432 7.37543 4.05734 7.52428 4.12951 7.66053C4.20167 7.79678 4.30152 7.91765 4.4231 8.01597L20.2106 21.7122C20.3278 21.8125 20.4644 21.8893 20.6126 21.9383C20.7608 21.9873 20.9177 22.0074 21.074 21.9976Z" fill="black"/>
<path d="M21.074 27.9976C21.3389 27.9824 21.5908 27.8819 21.7894 27.7122L37.5769 14.016C37.6985 13.9176 37.7983 13.7968 37.8705 13.6605C37.9427 13.5243 37.9857 13.3754 37.997 13.2228C38.0083 13.0702 37.9877 12.917 37.9363 12.7723C37.885 12.6275 37.804 12.4942 37.6982 12.3802C37.5923 12.2662 37.4638 12.1739 37.3202 12.1087C37.1766 12.0436 37.0209 12.0069 36.8623 12.0009C36.7037 11.9949 36.5455 12.0197 36.397 12.0738C36.2486 12.1279 36.1129 12.2102 35.9981 12.3158L21 25.3225L6.00185 12.3158C5.88706 12.2102 5.7514 12.1279 5.60295 12.0738C5.4545 12.0197 5.29628 11.9949 5.1377 12.0009C4.97912 12.0069 4.8234 12.0436 4.67981 12.1087C4.53622 12.1739 4.40769 12.2662 4.30184 12.3802C4.19599 12.4942 4.11499 12.6275 4.06366 12.7723C4.01232 12.917 3.9917 13.0702 4.00301 13.2228C4.01432 13.3754 4.05734 13.5243 4.12951 13.6605C4.20167 13.7968 4.30152 13.9176 4.4231 14.016L20.2106 27.7122C20.3278 27.8125 20.4644 27.8893 20.6126 27.9383C20.7608 27.9873 20.9177 28.0074 21.074 27.9976Z" fill="black"/>
</g>
<defs>
<filter id="filter0_d_1_35" x="0" y="0" width="42" height="36" filterUnits="userSpaceOnUse" color-interpolation-filters="sRGB">
<feFlood flood-opacity="0" result="BackgroundImageFix"/>
<feColorMatrix in="SourceAlpha" type="matrix" values="0 0 0 0 0 0 0 0 0 0 0 0 0 0 0 0 0 0 127 0" result="hardAlpha"/>
<feOffset dy="4"/>
<feGaussianBlur stdDeviation="2"/>
<feComposite in2="hardAlpha" operator="out"/>
<feColorMatrix type="matrix" values="0 0 0 0 0 0 0 0 0 0 0 0 0 0 0 0 0 0 0.25 0"/>
<feBlend mode="normal" in2="BackgroundImageFix" result="effect1_dropShadow_1_35"/>
<feBlend mode="normal" in="SourceGraphic" in2="effect1_dropShadow_1_35" result="shape"/>
</filter>
</defs>
</svg>
