<svg width="61" height="61" viewBox="0 0 61 61" fill="none" xmlns="http://www.w3.org/2000/svg">
<g filter="url(#filter0_d_11_379)">
<path d="M28.5 11C19.953 11 13 17.9533 13 26.5C13 35.047 19.953 42.0006 28.5 42.0006C37.0464 42.0006 44 35.047 44 26.5C44 17.9533 37.0464 11 28.5 11ZM32.8807 20.7848C32.8807 20.8582 32.8516 20.9286 32.7997 20.9805C32.7478 21.0324 32.6774 21.0616 32.604 21.0616L30.842 21.0627C29.6794 21.0627 29.4669 21.5154 29.4669 22.4071V24.2568H32.4889C32.5683 24.2568 32.6441 24.2911 32.6964 24.3509C32.7487 24.4106 32.7731 24.4901 32.7634 24.5689L32.3331 27.8989C32.3245 27.9656 32.2918 28.0269 32.2413 28.0713C32.1908 28.1157 32.1258 28.1402 32.0586 28.1402H29.4669V36.4088C29.4669 36.4822 29.4378 36.5526 29.3859 36.6045C29.334 36.6564 29.2636 36.6856 29.1902 36.6856H25.752C25.6786 36.6856 25.6082 36.6564 25.5563 36.6045C25.5044 36.5526 25.4753 36.4822 25.4753 36.4088V28.1402H22.8753C22.8019 28.1402 22.7315 28.1111 22.6797 28.0592C22.6278 28.0073 22.5986 27.9369 22.5986 27.8635V24.5335C22.5986 24.4601 22.6278 24.3897 22.6797 24.3378C22.7315 24.2859 22.8019 24.2568 22.8753 24.2568H25.4753V22.0775C25.4753 19.1911 27.222 17.3984 30.0345 17.3984C31.2436 17.3984 32.312 17.4884 32.6403 17.5318C32.7068 17.5406 32.7678 17.5733 32.8121 17.6237C32.8563 17.6742 32.8807 17.739 32.8807 17.8061V20.7848Z" fill="black"/>
</g>
<defs>
<filter id="filter0_d_11_379" x="0" y="0" width="61" height="61.0006" filterUnits="userSpaceOnUse" color-interpolation-filters="sRGB">
<feFlood flood-opacity="0" result="BackgroundImageFix"/>
<feColorMatrix in="SourceAlpha" type="matrix" values="0 0 0 0 0 0 0 0 0 0 0 0 0 0 0 0 0 0 127 0" result="hardAlpha"/>
<feOffset dx="2" dy="4"/>
<feGaussianBlur stdDeviation="7.5"/>
<feComposite in2="hardAlpha" operator="out"/>
<feColorMatrix type="matrix" values="0 0 0 0 0 0 0 0 0 0 0 0 0 0 0 0 0 0 0.35 0"/>
<feBlend mode="normal" in2="BackgroundImageFix" result="effect1_dropShadow_11_379"/>
<feBlend mode="normal" in="SourceGraphic" in2="effect1_dropShadow_11_379" result="shape"/>
</filter>
</defs>
</svg>
