<svg width="15" height="19" viewBox="0 0 15 19" fill="none" xmlns="http://www.w3.org/2000/svg">
<path fill-rule="evenodd" clip-rule="evenodd" d="M7.43407 0.473389C11.3214 0.473389 14.5019 3.57825 14.5019 7.43058C14.5019 10.248 10.6146 15.6527 8.08195 18.0101C7.72856 18.4126 7.08068 18.4126 6.72729 18.0101C4.19466 15.6527 0.307373 10.248 0.307373 7.43058C0.307373 3.57825 3.48788 0.473389 7.43407 0.473389ZM7.43407 3.57825C9.55441 3.57825 11.3214 5.30317 11.3214 7.43058C11.3214 9.50048 9.55441 11.2254 7.43407 11.2254C5.25483 11.2254 3.48788 9.50048 3.48788 7.43058C3.48788 5.30317 5.25483 3.57825 7.43407 3.57825Z" fill="#940000"/>
<path fill-rule="evenodd" clip-rule="evenodd" d="M7.43436 4.90076C8.78902 4.90076 9.96699 6.05071 9.96699 7.43064C9.96699 8.75308 8.78902 9.90303 7.43436 9.90303C6.0208 9.90303 4.84283 8.75308 4.84283 7.43064C4.84283 6.05071 6.0208 4.90076 7.43436 4.90076Z" fill="#940000"/>
</svg>
