<svg width="60" height="62" viewBox="0 0 60 62" fill="none" xmlns="http://www.w3.org/2000/svg">
<path d="M15.9828 12.7211C17.9102 6.87455 23.3713 2.56993 29.8604 2.56993C36.3494 2.56993 41.8105 6.81031 43.738 12.6569C44.4447 12.4641 45.1514 12.3356 45.9224 12.3356C46.0509 12.3356 46.2436 12.3356 46.3721 12.3356C44.3162 5.26835 37.6986 0 29.8604 0C22.0221 0 15.4045 5.26835 13.4128 12.4641C13.5413 12.4641 13.7341 12.4641 13.8626 12.4641C14.5693 12.3999 15.3403 12.5284 15.9828 12.7211Z" fill="#940000"/>
<path d="M28.5111 9.18748V11.5004C28.5111 12.2714 29.1536 12.9139 29.8603 12.9139C30.567 12.9139 31.2095 12.2714 31.2095 11.5004V9.18748C31.2095 8.4165 30.567 7.77402 29.8603 7.77402C29.1536 7.77402 28.5111 8.4165 28.5111 9.18748Z" fill="#940000"/>
<path d="M23.2428 9.57295C22.6004 9.95844 22.3434 10.7937 22.7289 11.5004L23.8853 13.4921C24.1423 13.9418 24.592 14.1988 25.0418 14.1988C25.2988 14.1988 25.4915 14.1346 25.7485 14.0061C26.391 13.6206 26.648 12.7854 26.2625 12.1429L25.106 10.1512C24.7848 9.44445 23.8853 9.18746 23.2428 9.57295Z" fill="#940000"/>
<path d="M34.5506 10.0227L33.3941 12.0144C33.0086 12.6569 33.2656 13.5564 33.9081 13.8776C34.1651 14.0061 34.3579 14.0704 34.6148 14.0704C35.0646 14.0704 35.5786 13.8134 35.7713 13.3636L36.9278 11.3719C37.3133 10.7295 37.1205 9.82998 36.4138 9.50874C35.8356 9.05901 34.9361 9.316 34.5506 10.0227Z" fill="#940000"/>
<path d="M27.3547 23.8361L28.6397 19.9169C29.0252 18.7605 28.3184 17.5397 27.2262 17.1543C27.0335 17.09 26.7765 17.0258 26.5837 17.0258C25.62 17.0258 24.7848 17.6682 24.4635 18.5677L23.1786 22.4869C22.5361 24.4785 21.0584 26.0205 19.1309 26.7272C18.1672 27.0485 17.2035 27.2412 16.304 27.2412H11.0357C8.85124 27.2412 6.7953 28.3977 5.70308 30.1966L0.370481 38.6774C0.0492402 39.1914 -0.0792561 39.7696 0.0492402 40.3478C0.177737 40.9261 0.563226 41.4401 1.07721 41.7613C1.39845 41.954 1.84819 42.0825 2.29793 42.0825C3.0689 42.0825 3.77563 41.6971 4.16112 41.0546L8.46575 34.2443V41.5043C8.46575 41.954 8.4015 42.4038 8.273 42.8535L3.90413 57.6306C3.51864 58.9156 4.16112 60.329 5.38184 60.843C5.70308 60.9715 6.02432 61.0357 6.34556 61.0357C7.43778 61.0357 8.46575 60.2648 8.78699 59.2368L13.2201 44.267C13.2844 43.9457 13.6056 43.753 13.9268 43.8815C14.1838 43.9457 14.3123 44.2027 14.3123 44.4597V58.4658C14.3123 59.8793 15.4046 61.0357 16.818 61.0357C18.2315 61.0357 19.3879 59.9435 19.3879 58.4658L19.4522 31.1604C19.4522 31.1604 20.2874 30.9676 20.6729 30.8391C23.8211 29.6826 26.2625 27.1127 27.3547 23.8361Z" fill="#940000"/>
<path d="M13.8627 25.635C16.8079 25.635 19.1953 23.2475 19.1953 20.3024C19.1953 17.3573 16.8079 14.9698 13.8627 14.9698C10.9176 14.9698 8.53015 17.3573 8.53015 20.3024C8.53015 23.2475 10.9176 25.635 13.8627 25.635Z" fill="#940000"/>
<path d="M59.3503 38.6774L54.0177 30.2609C52.9254 28.3977 50.8695 27.3055 48.6851 27.3055H43.4167C42.5172 27.3055 41.5535 27.1127 40.5898 26.7915C38.6623 26.0847 37.1846 24.5428 36.5422 22.5511L35.2572 18.632C35.0002 17.7325 34.165 17.09 33.137 17.09C32.88 17.09 32.6873 17.1542 32.4945 17.2185C31.3381 17.604 30.6956 18.8247 31.0811 19.9812L32.366 23.9003C33.4582 27.177 35.8997 29.7469 39.1121 30.9033C39.4976 31.0318 40.3328 31.2246 40.3328 31.2246L40.397 58.5301C40.397 59.9435 41.5535 61.1 42.967 61.1C44.3804 61.1 45.4727 59.8793 45.4727 58.5301V44.4597C45.4727 44.2027 45.6654 43.9457 45.8581 43.8815C46.1794 43.753 46.5006 43.9457 46.5649 44.267L50.998 59.2368C51.3192 60.329 52.3472 61.0357 53.4394 61.0357C53.7607 61.0357 54.0819 60.9715 54.4031 60.843C55.6239 60.329 56.2663 58.9798 55.8809 57.6306L51.512 42.8535C51.3835 42.4038 51.3192 41.954 51.3192 41.5043V34.2443L55.5596 41.0546C55.9451 41.697 56.6518 42.0825 57.4228 42.0825C57.8725 42.0825 58.258 41.954 58.6435 41.697C59.1575 41.3758 59.543 40.8618 59.6715 40.2836C59.8 39.7696 59.6715 39.1271 59.3503 38.6774Z" fill="#940000"/>
<path d="M45.8582 25.635C48.8033 25.635 51.1908 23.2475 51.1908 20.3024C51.1908 17.3573 48.8033 14.9698 45.8582 14.9698C42.9131 14.9698 40.5256 17.3573 40.5256 20.3024C40.5256 23.2475 42.9131 25.635 45.8582 25.635Z" fill="#940000"/>
<path d="M35.0645 36.0432C33.6511 35.0795 31.7236 35.4007 30.5672 36.5572L29.8604 37.2639L29.0895 36.4929C27.5475 34.951 24.9776 35.1437 23.7569 37.0069C22.7931 38.4204 23.1144 40.3478 24.2708 41.5043L29.3465 46.5799C29.6677 46.9011 30.1174 46.9011 30.4387 46.5799L35.6428 41.3758C37.1205 39.8338 36.9277 37.2639 35.0645 36.0432Z" fill="#940000"/>
</svg>
