<svg width="85" height="31" viewBox="0 0 85 31" fill="none" xmlns="http://www.w3.org/2000/svg">
<path d="M84.4587 18.484C84.1618 17.4594 83.5326 16.0849 82.2408 15.2222C76.2981 11.7319 68.4656 10.8303 67.4849 10.7378C66.5016 10.6433 64.9278 10.4165 64.9278 10.4165C64.9278 10.4165 56.7044 3.81524 48.9039 1.32265C41.1047 -1.17086 25.0487 0.601672 23.6645 0.735834C20.3845 1.0377 11.4623 7.87214 11.4623 7.87214C11.4623 7.87214 1.72491 9.69373 0.975059 10.3833C0.227045 11.072 -0.0233901 14.4392 0.00169217 17.5704C0.0266776 20.7025 0.566285 25.002 0.566285 25.002C1.83502 25.0815 8.66437 25.5045 8.66437 25.5045C8.6144 25.1288 8.57954 24.7484 8.57954 24.3587C8.57954 19.7308 12.2058 15.9775 16.6803 15.9775C21.1549 15.9775 24.7811 19.8538 24.7811 24.4807C24.7811 25.3478 24.655 26.1626 24.4188 27.0881H61.2191C60.982 26.1626 60.8556 25.3452 60.8556 24.4807C60.8556 19.8538 64.4821 16.0394 68.9576 16.0394C73.4312 16.0394 77.0585 19.7613 77.0585 24.3891C77.0585 25.1212 76.96 25.8097 76.7882 26.4875C78.4033 26.5588 84.3228 26.7845 84.7798 26.4624C85.3087 26.0886 84.7566 19.5096 84.4587 18.484ZM23.4686 9.93995C23.4686 9.93995 23.3757 4.83251 24.706 3.57284C26.0383 2.314 34.7019 2.63705 35.1189 2.60462C35.5367 2.57322 35.9286 3.04715 35.9609 3.496C35.9921 3.94587 36.4466 10.7109 36.4466 10.7109L23.4686 9.93995ZM54.8726 11.3329L39.7698 10.9442C39.7698 10.9442 38.3176 3.43124 38.2567 3.12761C38.1959 2.82305 38.4679 2.60648 38.9296 2.60555C39.3913 2.60462 45.5507 3.18131 48.7056 4.34659C52.9973 5.93126 56.7498 8.88477 56.7498 8.88477L54.8726 11.3329ZM69.0132 17.4394C65.2691 17.4394 62.2229 20.4819 62.2229 24.2197C62.2229 27.9576 65.2691 31 69.0132 31C72.7575 31 75.8036 27.9576 75.8036 24.2197C75.8036 20.4819 72.7575 17.4394 69.0132 17.4394ZM69.0132 27.5159C67.1911 27.5159 65.7097 26.0372 65.7097 24.2182C65.7097 22.399 67.1911 20.9185 69.0132 20.9185C70.8354 20.9185 72.3168 22.399 72.3168 24.2182C72.3168 26.0372 70.8338 27.5159 69.0132 27.5159ZM16.6856 17.4394C12.9413 17.4394 9.89515 20.4819 9.89515 24.2197C9.89515 27.9576 12.9413 31 16.6856 31C20.4299 31 23.4775 27.9576 23.4775 24.2197C23.4775 20.4819 20.4299 17.4394 16.6856 17.4394ZM16.6856 27.5159C14.8633 27.5159 13.3821 26.0372 13.3821 24.2182C13.3821 22.399 14.8632 20.9185 16.6856 20.9185C18.5078 20.9185 19.989 22.399 19.989 24.2182C19.989 26.0372 18.5079 27.5159 16.6856 27.5159Z" fill="#940000"/>
</svg>
