<svg width="69" height="61" viewBox="0 0 69 61" fill="none" xmlns="http://www.w3.org/2000/svg">
<path d="M27.4219 0.30307C27.4219 0.30307 29.0126 1.43933 30.4519 0.984827C33.7092 0.0758172 34.5425 1.59083 34.5425 1.59083L34.3152 2.04534C34.3152 2.04534 33.1789 0.909076 30.4519 1.66658C29.0126 2.04534 27.4219 0.909076 27.4219 0.909076V0.30307Z" fill="#940000"/>
<path d="M34.3151 2.04532C34.3151 2.04532 34.1636 1.89382 33.7849 1.74232C33.4819 1.59082 32.9516 1.43932 32.1941 1.43932C31.6639 1.43932 31.0579 1.51507 30.3761 1.74232C30.1489 1.74232 29.9974 1.74232 29.6943 1.74232C28.4823 1.74232 27.3461 0.909059 27.3461 0.909059L27.4218 0.227301C27.4218 0.227301 28.5581 1.06056 29.7701 1.06056C29.9973 1.06056 30.2246 1.06056 30.4519 0.98481C31.1336 0.757557 31.8154 0.681807 32.3456 0.681807C32.8001 0.681807 33.5576 0.757557 34.0879 1.13631C34.3909 1.36356 34.5424 1.59082 34.5424 1.59082L34.3151 2.04532ZM32.1941 1.36356C32.9516 1.36356 33.4819 1.51507 33.7849 1.66657C34.0879 1.81807 34.2394 1.96957 34.3151 1.96957L34.5424 1.51507C34.5424 1.51507 34.3909 1.28781 34.0879 1.06056C33.5576 0.681807 32.8759 0.606056 32.3456 0.606056C31.8154 0.606056 31.1336 0.681806 30.4519 0.909059C30.2246 0.984809 29.9973 0.98481 29.7701 0.98481C28.6338 0.98481 27.4976 0.227301 27.4218 0.15155L27.3461 0.757557C27.4218 0.833308 28.5581 1.59082 29.6943 1.59082C29.9216 1.59082 30.1489 1.59082 30.3761 1.51507C31.0579 1.43931 31.6639 1.36356 32.1941 1.36356Z" fill="#940000"/>
<path d="M27.2705 2.8786C27.2705 2.8786 28.8613 4.01486 30.3005 3.56036C33.5578 2.65135 34.1638 3.93911 34.1638 3.93911C34.3153 4.39362 34.1638 4.62087 34.1638 4.62087C34.1638 4.62087 33.0276 3.48461 30.3005 4.24212C28.8613 4.62087 27.2705 3.48461 27.2705 3.48461V2.8786Z" fill="#940000"/>
<path d="M34.1635 4.62088C34.1635 4.62088 34.012 4.46938 33.6333 4.31788C33.3303 4.16638 32.8 4.01488 32.0425 4.01488C31.5123 4.01488 30.9062 4.09063 30.2245 4.31788C29.9972 4.39363 29.77 4.39363 29.5427 4.39363C28.3307 4.39363 27.1945 3.56037 27.1945 3.56037L27.2702 2.87861C27.2702 2.87861 28.4065 3.71187 29.6185 3.71187C29.8457 3.71187 30.073 3.71187 30.3002 3.63612C31.0577 3.40887 31.8153 3.33312 32.3455 3.33312C33.7848 3.33312 34.0878 4.01488 34.0878 4.01488C34.1635 4.24213 34.1635 4.39363 34.1635 4.54513C34.2393 4.54513 34.1635 4.62088 34.1635 4.62088ZM32.0425 3.93912C32.8 3.93912 33.3303 4.09063 33.6333 4.24213C33.9363 4.39363 34.0878 4.54513 34.1635 4.54513C34.1635 4.46938 34.315 4.24213 34.1635 3.86337C34.1635 3.86337 33.8605 3.18162 32.4213 3.18162C31.8153 3.18162 31.1335 3.25737 30.376 3.48462C30.1487 3.56037 29.9215 3.56037 29.6942 3.56037C28.558 3.56037 27.4217 2.80286 27.346 2.72711L27.2702 3.33312C27.346 3.40887 28.4822 4.16638 29.6185 4.16638C29.8457 4.16638 30.073 4.16638 30.3002 4.09063C30.9062 4.09063 31.5123 3.93912 32.0425 3.93912Z" fill="#940000"/>
<path d="M27.3459 1.59079C27.3459 1.59079 28.9367 2.72705 30.376 2.27255C33.6333 1.36354 34.2393 2.6513 34.2393 2.6513C34.3908 2.87855 34.2393 3.25731 34.2393 3.25731C34.2393 3.25731 33.103 2.12105 30.376 2.87855C28.9367 3.25731 27.3459 2.12105 27.3459 2.12105V1.59079Z" fill="#940000"/>
<path d="M34.2393 3.33304C34.2393 3.33304 34.0878 3.18154 33.7091 3.03004C33.4061 2.87854 32.8758 2.72703 32.1183 2.72703C31.5881 2.72703 30.9821 2.80278 30.3003 3.03004C30.073 3.10579 29.8458 3.10579 29.6185 3.10579C28.4065 3.10579 27.2703 2.27253 27.2703 2.27253L27.346 1.59077C27.346 1.59077 28.4823 2.42403 29.6943 2.42403C29.9215 2.42403 30.1488 2.42403 30.376 2.34828C31.1336 2.12103 31.8153 2.04528 32.4213 2.04528C33.1788 2.04528 33.6333 2.27253 33.8606 2.42403C34.1636 2.57553 34.2393 2.80278 34.2393 2.80278C34.3151 2.95429 34.3151 3.10579 34.2393 3.18154V3.33304ZM32.1183 2.65128C32.8758 2.65128 33.4061 2.80279 33.7091 2.95429C34.0121 3.10579 34.1636 3.25729 34.2393 3.25729C34.2393 3.18154 34.3908 2.80278 34.2393 2.65128C34.2393 2.65128 34.1636 2.49978 33.8606 2.27253C33.6333 2.12103 33.1788 1.89377 32.4213 1.89377C31.8153 1.89377 31.1336 1.96953 30.376 2.19678C30.1488 2.27253 29.9215 2.27253 29.6943 2.27253C28.558 2.27253 27.4218 1.51502 27.346 1.43927L27.2703 2.04528C27.346 2.12103 28.4823 2.87854 29.6185 2.87854C29.8458 2.87854 30.073 2.87854 30.3003 2.80278C30.9821 2.72703 31.5881 2.65128 32.1183 2.65128Z" fill="#940000"/>
<path d="M27.6492 0H26.9674V19.5437H27.6492V0Z" fill="#940000"/>
<path d="M5.83276 12.5746C5.83276 12.5746 7.42353 13.7109 8.8628 13.2564C12.1201 12.3473 12.9533 13.8624 12.9533 13.8624L12.7261 14.3169C12.7261 14.3169 11.5898 13.1806 8.8628 13.9381C7.42353 14.3169 5.83276 13.1806 5.83276 13.1806V12.5746Z" fill="#940000"/>
<path d="M12.7262 14.3169C12.7262 14.3169 12.5747 14.1654 12.1959 14.0139C11.8929 13.8624 11.3626 13.7109 10.6051 13.7109C10.0749 13.7109 9.46887 13.7867 8.78711 14.0139C8.55986 14.0897 8.33261 14.0897 8.10536 14.0897C6.89334 14.0897 5.75708 13.2564 5.75708 13.2564L5.83283 12.5746C5.83283 12.5746 6.96909 13.4079 8.18111 13.4079C8.40836 13.4079 8.63561 13.4079 8.86286 13.3321C9.54462 13.1049 10.2264 13.0291 10.7566 13.0291C11.2111 13.0291 11.9686 13.1049 12.4989 13.4836C12.8019 13.7109 12.9534 13.9382 12.9534 13.9382L12.7262 14.3169ZM10.6051 13.7109C11.3626 13.7109 11.8929 13.8624 12.1959 14.0139C12.4989 14.1654 12.6504 14.3169 12.7262 14.3169L12.9534 13.8624C12.9534 13.8624 12.8019 13.6351 12.4989 13.4079C11.9686 13.0291 11.2869 12.9534 10.7566 12.9534C10.2264 12.9534 9.54462 13.0291 8.86286 13.2564C8.63561 13.3321 8.40836 13.3321 8.18111 13.3321C7.04484 13.3321 5.90858 12.5746 5.83283 12.4989L5.75708 13.1049C5.83283 13.1806 6.96909 13.9382 8.10536 13.9382C8.33261 13.9382 8.55986 13.9382 8.78711 13.8624C9.46887 13.7866 10.0749 13.7109 10.6051 13.7109Z" fill="#940000"/>
<path d="M5.6814 15.1502C5.6814 15.1502 7.27216 16.2865 8.71143 15.8319C11.9687 14.9229 12.5747 16.2107 12.5747 16.2107C12.7262 16.6652 12.5747 16.8925 12.5747 16.8925C12.5747 16.8925 11.4385 15.7562 8.71143 16.5137C7.27216 16.8925 5.6814 15.7562 5.6814 15.7562V15.1502Z" fill="#940000"/>
<path d="M12.5745 16.8925C12.5745 16.8925 12.423 16.741 12.0443 16.5894C11.7413 16.4379 11.211 16.2864 10.4535 16.2864C9.92327 16.2864 9.31726 16.3622 8.6355 16.5894C8.40825 16.6652 8.181 16.6652 7.95374 16.6652C6.74173 16.6652 5.60547 15.8319 5.60547 15.8319L5.68122 15.1502C5.68122 15.1502 6.81748 15.9834 8.0295 15.9834C8.25675 15.9834 8.484 15.9834 8.71125 15.9077C9.46876 15.6804 10.2263 15.6047 10.7565 15.6047C12.1958 15.6047 12.4988 16.2864 12.4988 16.2864C12.5745 16.5137 12.5745 16.6652 12.5745 16.8167C12.6503 16.8925 12.5745 16.8925 12.5745 16.8925ZM10.5293 16.2864C11.2868 16.2864 11.817 16.4379 12.12 16.5894C12.423 16.741 12.5745 16.8925 12.6503 16.8925C12.6503 16.8167 12.8018 16.5894 12.6503 16.2107C12.6503 16.2107 12.3473 15.5289 10.908 15.5289C10.302 15.5289 9.62026 15.6047 8.86276 15.8319C8.6355 15.9077 8.40825 15.9077 8.181 15.9077C7.04474 15.9077 5.90847 15.1502 5.83272 15.0744L5.68122 15.8319C5.75697 15.9077 6.89323 16.6652 8.0295 16.6652C8.25675 16.6652 8.484 16.6652 8.71125 16.5894C9.31726 16.3622 9.92327 16.2864 10.5293 16.2864Z" fill="#940000"/>
<path d="M5.75684 13.8624C5.75684 13.8624 7.3476 14.9987 8.78687 14.5442C12.0442 13.6352 12.6502 14.923 12.6502 14.923C12.8017 15.1502 12.6502 15.529 12.6502 15.529C12.6502 15.529 11.5139 14.3927 8.78687 15.1502C7.3476 15.529 5.75684 14.3927 5.75684 14.3927V13.8624Z" fill="#940000"/>
<path d="M12.6504 15.6047C12.6504 15.6047 12.4988 15.4532 12.1201 15.3017C11.8171 15.1502 11.2868 14.9987 10.5293 14.9987C9.99907 14.9987 9.39307 15.0745 8.71131 15.3017C8.48406 15.3775 8.2568 15.3775 8.02955 15.3775C6.81754 15.3775 5.68127 14.5442 5.68127 14.5442L5.75703 13.8625C5.75703 13.8625 6.89329 14.6957 8.1053 14.6957C8.33255 14.6957 8.55981 14.6957 8.78706 14.62C9.54457 14.3927 10.2263 14.317 10.8323 14.317C11.5898 14.317 12.0443 14.5442 12.2716 14.6957C12.5746 14.8472 12.6504 15.0745 12.6504 15.0745C12.7261 15.226 12.7261 15.3775 12.6504 15.4532C12.6504 15.529 12.6504 15.6047 12.6504 15.6047ZM10.5293 14.923C11.2868 14.923 11.8171 15.0745 12.1201 15.226C12.4231 15.3775 12.5746 15.529 12.6504 15.529C12.6504 15.4532 12.8019 15.0745 12.6504 14.923C12.6504 14.923 12.5746 14.7715 12.2716 14.5442C12.0443 14.3927 11.5898 14.1655 10.8323 14.1655C10.2263 14.1655 9.54457 14.2412 8.78706 14.4685C8.55981 14.5442 8.33255 14.5442 8.1053 14.5442C6.96904 14.5442 5.83278 13.7867 5.75703 13.711L5.68127 14.4685C5.75703 14.5442 6.89329 15.3017 8.02955 15.3017C8.2568 15.3017 8.48406 15.3017 8.71131 15.226C9.39307 15.0745 9.99907 14.923 10.5293 14.923Z" fill="#940000"/>
<path d="M6.06018 12.2717H5.37842V27.1946H6.06018V12.2717Z" fill="#940000"/>
<path d="M50.7532 12.5746C50.7532 12.5746 52.3439 13.7109 53.7832 13.2564C57.0405 12.3473 57.8738 13.8624 57.8738 13.8624L57.6465 14.3169C57.6465 14.3169 56.5102 13.1806 53.7832 13.9381C52.3439 14.3169 50.7532 13.1806 50.7532 13.1806V12.5746Z" fill="#940000"/>
<path d="M57.6463 14.3169C57.6463 14.3169 57.4948 14.1654 57.1161 14.0139C56.8131 13.8624 56.2828 13.7109 55.5253 13.7109C54.995 13.7109 54.389 13.7867 53.7073 14.0139C53.48 14.0897 53.2528 14.0897 53.0255 14.0897C51.8135 14.0897 50.6772 13.2564 50.6772 13.2564L50.753 12.5746C50.753 12.5746 51.8893 13.4079 53.1013 13.4079C53.3285 13.4079 53.5558 13.4079 53.783 13.3321C54.4648 13.1049 55.1465 13.0291 55.6768 13.0291C56.1313 13.0291 56.8888 13.1049 57.4191 13.4836C57.7221 13.7109 57.8736 13.9382 57.8736 13.9382L57.6463 14.3169ZM55.5253 13.7109C56.2828 13.7109 56.8131 13.8624 57.1161 14.0139C57.4191 14.1654 57.5706 14.3169 57.6463 14.3169L57.8736 13.8624C57.8736 13.8624 57.7221 13.6351 57.4191 13.4079C56.8888 13.0291 56.2071 12.9534 55.6768 12.9534C55.1465 12.9534 54.4648 13.0291 53.783 13.2564C53.5558 13.3321 53.3285 13.3321 53.1013 13.3321C51.965 13.3321 50.8287 12.5746 50.753 12.4989L50.6772 13.1049C50.753 13.1806 51.8893 13.9382 53.0255 13.9382C53.2528 13.9382 53.48 13.9382 53.7073 13.8624C54.389 13.7866 54.995 13.7109 55.5253 13.7109Z" fill="#940000"/>
<path d="M50.6021 15.1502C50.6021 15.1502 52.1928 16.2865 53.6321 15.8319C56.8894 14.9229 57.4954 16.2107 57.4954 16.2107C57.6469 16.6652 57.4954 16.8925 57.4954 16.8925C57.4954 16.8925 56.3591 15.7562 53.6321 16.5137C52.1928 16.8925 50.6021 15.7562 50.6021 15.7562V15.1502Z" fill="#940000"/>
<path d="M57.4951 16.8925C57.4951 16.8925 57.3436 16.741 56.9648 16.5894C56.6618 16.4379 56.1316 16.2864 55.3741 16.2864C54.8438 16.2864 54.2378 16.3622 53.556 16.5894C53.3288 16.6652 53.1015 16.6652 52.8743 16.6652C51.6623 16.6652 50.526 15.8319 50.526 15.8319L50.6018 15.1502C50.6018 15.1502 51.738 15.9834 52.95 15.9834C53.1773 15.9834 53.4045 15.9834 53.6318 15.9077C54.3893 15.6804 55.1468 15.6047 55.6771 15.6047C57.1163 15.6047 57.4193 16.2864 57.4193 16.2864C57.4951 16.5137 57.4951 16.6652 57.4951 16.8167C57.5708 16.8925 57.4951 16.8925 57.4951 16.8925ZM55.3741 16.2864C56.1316 16.2864 56.6618 16.4379 56.9648 16.5894C57.2678 16.741 57.4193 16.8925 57.4951 16.8925C57.4951 16.8167 57.6466 16.5894 57.4951 16.2107C57.4951 16.2107 57.1921 15.5289 55.7528 15.5289C55.1468 15.5289 54.465 15.6047 53.7075 15.8319C53.4803 15.9077 53.253 15.9077 53.0258 15.9077C51.8895 15.9077 50.7533 15.1502 50.6775 15.0744L50.6018 15.6804C50.6775 15.7562 51.8138 16.5137 52.95 16.5137C53.1773 16.5137 53.4045 16.5137 53.6318 16.4379C54.2378 16.3622 54.8438 16.2864 55.3741 16.2864Z" fill="#940000"/>
<path d="M50.6772 13.8624C50.6772 13.8624 52.268 14.9987 53.7073 14.5442C56.9646 13.6352 57.5706 14.923 57.5706 14.923C57.7221 15.1502 57.5706 15.529 57.5706 15.529C57.5706 15.529 56.4343 14.3927 53.7073 15.1502C52.268 15.529 50.6772 14.3927 50.6772 14.3927V13.8624Z" fill="#940000"/>
<path d="M57.5705 15.6047C57.5705 15.6047 57.419 15.4532 57.0403 15.3017C56.7373 15.1502 56.207 14.9987 55.4495 14.9987C54.9192 14.9987 54.3132 15.0745 53.6315 15.3017C53.4042 15.3775 53.177 15.3775 52.9497 15.3775C51.7377 15.3775 50.6014 14.5442 50.6014 14.5442L50.6772 13.8625C50.6772 13.8625 51.8135 14.6957 53.0255 14.6957C53.2527 14.6957 53.48 14.6957 53.7072 14.62C54.4647 14.3927 55.1465 14.317 55.7525 14.317C56.51 14.317 56.9645 14.5442 57.1918 14.6957C57.4948 14.8472 57.5705 15.0745 57.5705 15.0745C57.6463 15.226 57.6463 15.3775 57.5705 15.4532C57.5705 15.529 57.5705 15.6047 57.5705 15.6047ZM55.4495 14.923C56.207 14.923 56.7373 15.0745 57.0403 15.226C57.3433 15.3775 57.4948 15.529 57.5705 15.529C57.5705 15.4532 57.722 15.0745 57.5705 14.923C57.5705 14.923 57.4948 14.7715 57.1918 14.5442C56.9645 14.3927 56.51 14.1655 55.7525 14.1655C55.1465 14.1655 54.4647 14.2412 53.7072 14.4685C53.48 14.5442 53.2527 14.5442 53.0255 14.5442C51.8892 14.5442 50.7529 13.7867 50.6772 13.711L50.6014 14.317C50.6772 14.3927 51.8135 15.1502 52.9497 15.1502C53.177 15.1502 53.4042 15.1502 53.6315 15.0745C54.3132 15.0745 54.9192 14.923 55.4495 14.923Z" fill="#940000"/>
<path d="M50.9802 12.2717H50.2985V27.1946H50.9802V12.2717Z" fill="#940000"/>
<path d="M17.2712 25.9069L15.6804 25.2251C15.6804 25.2251 15.8319 25.0736 15.8319 24.8464C15.8319 24.6191 15.6046 24.4676 15.3016 24.4676H14.9986L13.8624 23.6343C14.0139 23.6343 14.1654 23.4828 14.1654 23.2556C14.1654 23.0283 14.0139 22.8768 13.8624 22.8768H13.1806C13.6351 22.4981 14.4684 21.5891 12.4231 20.3013C12.5746 20.2255 12.4989 19.9983 12.2716 19.9983H11.9686C12.1959 19.8468 12.2716 18.9378 11.6656 17.8773H11.5898C10.9081 18.9378 11.0596 19.8468 11.2868 19.9983H10.9838C10.7566 19.9983 10.6808 20.2255 10.8323 20.3013C8.78707 21.5891 9.62032 22.4981 10.0748 22.8768H9.46882C9.31732 22.8768 9.16582 23.0283 9.16582 23.2556C9.16582 23.4828 9.31732 23.6343 9.46882 23.6343L8.33256 24.4676H8.02956C7.72655 24.4676 7.4993 24.6191 7.4993 24.8464C7.4993 24.9979 7.6508 25.2251 7.6508 25.2251L5.98428 25.9069H6.06004C5.37828 25.9069 4.84802 26.5129 4.84802 27.2704C4.84802 28.0279 5.37828 28.6339 6.06004 28.6339H17.3469C18.0287 28.6339 18.5589 28.0279 18.5589 27.2704C18.5589 26.5129 17.9529 25.9069 17.2712 25.9069Z" fill="#940000"/>
<path d="M62.04 25.9069L60.4492 25.2251C60.4492 25.2251 60.6007 25.0736 60.6007 24.8464C60.6007 24.6191 60.3734 24.4676 60.0704 24.4676H59.7674L58.6312 23.6343C58.7827 23.6343 58.9342 23.4828 58.9342 23.2556C58.9342 23.0283 58.7827 22.8768 58.6312 22.8768H57.9494C58.4039 22.4981 59.2372 21.5891 57.1919 20.3013C57.3434 20.2255 57.2677 19.9983 57.0404 19.9983H56.7374C56.9647 19.8468 57.0404 18.9378 56.4344 17.8773H56.3586C55.6769 18.9378 55.8284 19.8468 56.0556 19.9983H55.7526C55.5254 19.9983 55.4496 20.2255 55.6011 20.3013C53.5559 21.5891 54.3891 22.4981 54.8436 22.8768H54.1619C54.0104 22.8768 53.8589 23.0283 53.8589 23.2556C53.8589 23.4828 54.0104 23.6343 54.1619 23.6343L53.1014 24.4676H52.7984C52.4954 24.4676 52.2681 24.6191 52.2681 24.8464C52.2681 24.9979 52.4196 25.2251 52.4196 25.2251L50.7531 25.9069H50.8288C50.1471 25.9069 49.6168 26.5129 49.6168 27.2704C49.6168 28.0279 50.1471 28.6339 50.8288 28.6339H62.1157C62.7975 28.6339 63.3277 28.0279 63.3277 27.2704C63.3277 26.5129 62.7217 25.9069 62.04 25.9069Z" fill="#940000"/>
<path d="M41.2085 16.438L39.1632 15.6047C39.1632 15.6047 39.3147 15.3775 39.3147 15.1502C39.3147 14.8472 39.0117 14.6957 38.633 14.6957H38.1784L36.7392 13.5594C36.9664 13.5594 37.1937 13.3322 37.1937 13.1049C37.1937 12.8777 37.0422 12.6504 36.7392 12.6504H35.9059C36.5119 12.1959 37.6482 10.9839 34.9212 9.31739C35.0727 9.24164 34.9969 8.93864 34.6939 8.93864H34.3152C34.5424 8.71139 34.6939 7.57512 33.8607 6.21161H33.7849C32.9516 7.57512 33.1031 8.78714 33.3304 8.93864H32.9516C32.6486 8.93864 32.5729 9.16589 32.7244 9.31739C30.0731 10.9839 31.1336 12.1959 31.7396 12.6504H30.9064C30.6791 12.6504 30.4519 12.8777 30.4519 13.1049C30.4519 13.3322 30.6034 13.5594 30.9064 13.5594L29.6186 14.62H29.1641C28.7853 14.62 28.4823 14.8472 28.4823 15.0745C28.4823 15.3017 28.6338 15.529 28.6338 15.529L26.5128 16.3622H26.5886C25.6796 16.3622 24.9978 17.1197 24.9978 18.1045C24.9978 19.0892 25.6796 19.8468 26.5886 19.8468H41.2085C42.1175 19.8468 42.7992 19.0892 42.7992 18.1045C42.7992 17.1197 42.1175 16.438 41.2085 16.438Z" fill="#940000"/>
<path d="M47.6474 49.2381C47.5717 48.6321 47.4959 48.0261 47.3444 47.4958C47.2687 47.9503 47.1929 48.3291 47.1172 48.7836C47.3444 48.9351 47.4959 49.0866 47.6474 49.2381Z" fill="#940000"/>
<path d="M20.907 48.6321C21.1343 48.4048 21.3615 48.2533 21.5888 48.0261C21.3615 46.9655 21.21 45.9808 20.9828 44.996C20.7555 46.3595 20.5283 47.7988 20.301 49.2381C20.5283 49.0108 20.7555 48.8593 20.907 48.6321Z" fill="#940000"/>
<path d="M47.0413 48.6321C47.117 48.6321 47.1171 48.7078 47.1928 48.7078C47.2686 48.2533 47.3443 47.8746 47.42 47.42C47.3443 46.7383 47.1928 46.0565 47.117 45.3748C46.8898 46.2838 46.7383 47.1928 46.5868 48.1018C46.6625 48.3291 46.8898 48.4806 47.0413 48.6321Z" fill="#940000"/>
<path d="M11.6658 29.2399H6.9692C3.33316 39.3147 1.13638 48.7836 0.00012207 60.525H11.6658H15.4533C15.529 56.3587 17.1956 52.3439 20.2256 49.2381C20.4528 47.7231 20.6801 46.3596 20.9074 44.996C19.7711 39.6177 18.2561 34.5424 16.2866 29.2399H11.6658ZM12.5748 59.6917H0.909132C2.04539 48.1776 4.01492 39.9965 7.72671 30.1489H12.5748V59.6917Z" fill="#940000"/>
<path d="M61.131 29.2399H56.4345H51.7379C49.6927 34.6939 48.1776 39.9207 47.0414 45.4505C47.1929 46.1323 47.2686 46.8141 47.3444 47.4958C48.4806 41.5873 50.1472 36.2089 52.4197 30.1489H57.2677V59.6917H52.4197V60.4492H56.4345H68.1001C67.0396 48.7836 64.8428 39.3147 61.131 29.2399Z" fill="#940000"/>
<path d="M34.0121 20.5285H27.952C24.619 29.3914 22.6495 35.8302 21.0587 44.9961C21.286 45.9808 21.5132 47.0413 21.6647 48.0261C21.7405 47.9503 21.892 47.8746 21.9677 47.7988C23.407 38.7845 25.528 31.2094 28.9368 22.0436H34.0121V33.2547C34.9969 34.8454 34.7696 36.209 34.4666 36.4362H34.9211C35.2999 36.4362 35.3756 36.7392 35.1484 36.8907C38.4057 38.936 37.0421 40.2995 36.3604 40.8298H37.4209C37.7239 40.8298 37.9512 41.057 37.9512 41.4358C37.9512 41.8145 37.7239 42.0418 37.4209 42.0418L39.1632 43.4053H39.6934C40.1479 43.4053 40.5267 43.6325 40.5267 44.0113C40.5267 44.3143 40.3752 44.6173 40.3752 44.6173H39.9207C42.4205 45.3748 44.693 46.5868 46.5867 48.2533C46.7382 47.3443 46.9655 46.4353 47.117 45.5263C45.3747 35.3757 43.178 28.2551 40.1479 20.6043H34.0121V20.5285Z" fill="#940000"/>
<path d="M33.8608 33.1789C32.8761 34.8454 33.0276 36.209 33.3306 36.4362H32.9518C32.5731 36.4362 32.4973 36.7392 32.7246 36.8907C29.4673 38.936 30.8308 40.2995 31.5125 40.8298H30.452C30.149 40.8298 29.9218 41.057 29.9218 41.4358C29.9218 41.8145 30.149 42.0418 30.452 42.0418L28.7855 43.4053H28.2553C27.8008 43.4053 27.422 43.6325 27.422 44.0113C27.422 44.3143 27.5735 44.6173 27.5735 44.6173H28.1795C29.9975 44.087 31.967 43.7083 34.0123 43.7083V33.2547C34.0123 33.2547 33.9366 33.2547 33.8608 33.1789Z" fill="#940000"/>
<path d="M46.2079 49.5411C42.9506 46.5111 38.5571 44.9203 33.9363 44.9203C29.3155 44.9203 24.9219 46.5868 21.6647 49.5411C18.4831 52.4954 16.6651 56.3587 16.5894 60.4492H51.2075C51.2075 56.3587 49.4652 52.4954 46.2079 49.5411Z" fill="#940000"/>
</svg>
