<svg width="20" height="19" viewBox="0 0 20 19" fill="none" xmlns="http://www.w3.org/2000/svg">
<path d="M18.2389 2.1992H16.4876V1.31368C16.4872 1.09096 16.3967 0.877497 16.2361 0.720012C16.0755 0.562526 15.8578 0.473848 15.6306 0.473389H14.3478C14.1205 0.473389 13.9026 0.561919 13.7418 0.719504C13.5811 0.877089 13.4908 1.09082 13.4908 1.31368V2.1992H6.67747V1.31368C6.677 1.09096 6.58656 0.877497 6.42594 0.720012C6.26533 0.562526 6.04762 0.473848 5.82048 0.473389H4.53765C4.31051 0.473848 4.0928 0.562526 3.93218 0.720012C3.77157 0.877497 3.68113 1.09096 3.68066 1.31368V2.1992H1.92941C1.62166 2.1992 1.3265 2.31908 1.10889 2.53245C0.891269 2.74583 0.769012 3.03523 0.769012 3.33699L0.769012 17.5228C0.769948 17.8242 0.892505 18.1131 1.10992 18.3263C1.32733 18.5395 1.62194 18.6596 1.92941 18.6605H18.2389C18.5464 18.6596 18.841 18.5395 19.0584 18.3263C19.2758 18.1131 19.3983 17.8242 19.3993 17.5228V3.33699C19.3993 3.03523 19.277 2.74583 19.0594 2.53245C18.8418 2.31908 18.5466 2.1992 18.2389 2.1992ZM14.378 1.34325H15.6005V3.92502H14.378V1.34325ZM4.56781 1.34325H5.79031V3.92502H4.56781V1.34325ZM1.65617 3.33699C1.65617 3.26593 1.68496 3.19778 1.7362 3.14754C1.78744 3.0973 1.85694 3.06907 1.92941 3.06907H3.68066V3.95285C3.68066 4.17587 3.77089 4.38978 3.93156 4.54764C4.09222 4.7055 4.3102 4.79442 4.53765 4.79488H5.82048C6.04793 4.79442 6.2659 4.7055 6.42657 4.54764C6.58724 4.38978 6.67747 4.17587 6.67747 3.95285V3.06907H13.4908V3.95285C13.4908 4.17587 13.5811 4.38978 13.7417 4.54764C13.9024 4.7055 14.1204 4.79442 14.3478 4.79488H15.6306C15.8581 4.79442 16.0761 4.7055 16.2367 4.54764C16.3974 4.38978 16.4876 4.17587 16.4876 3.95285V3.06907H18.2389C18.3114 3.06907 18.3809 3.0973 18.4321 3.14754C18.4833 3.19778 18.5121 3.26593 18.5121 3.33699V5.78479H1.65617V3.33699ZM18.5121 17.5228C18.5121 17.5579 18.5051 17.5928 18.4913 17.6253C18.4776 17.6578 18.4575 17.6873 18.4321 17.7122C18.4067 17.7371 18.3766 17.7568 18.3435 17.7703C18.3103 17.7837 18.2748 17.7907 18.2389 17.7907H1.92941C1.89353 17.7907 1.858 17.7837 1.82485 17.7703C1.79169 17.7568 1.76157 17.7371 1.7362 17.7122C1.71083 17.6873 1.6907 17.6578 1.67697 17.6253C1.66324 17.5928 1.65617 17.5579 1.65617 17.5228V6.65639H18.5121V17.5228Z" fill="#940000"/>
<path d="M7.57383 10.0663H9.02617C9.19255 10.0658 9.35196 10.0007 9.46945 9.8853C9.58693 9.76985 9.65291 9.61347 9.65291 9.45043V8.02907C9.65291 7.86604 9.58693 7.70965 9.46945 7.5942C9.35196 7.47876 9.19255 7.41367 9.02617 7.41321H7.57383C7.40744 7.41367 7.24803 7.47876 7.13054 7.5942C7.01306 7.70965 6.94708 7.86604 6.94708 8.02907V9.45043C6.94708 9.61347 7.01306 9.76985 7.13054 9.8853C7.24803 10.0007 7.40744 10.0658 7.57383 10.0663ZM7.83482 8.28307H8.76517V9.19643H7.83482V8.28307Z" fill="#940000"/>
<path d="M11.1438 10.0663H12.5961C12.7625 10.0658 12.9219 10.0007 13.0394 9.8853C13.1569 9.76985 13.2229 9.61347 13.2229 9.45043V8.02907C13.2229 7.86604 13.1569 7.70965 13.0394 7.5942C12.9219 7.47876 12.7625 7.41367 12.5961 7.41321H11.1438C10.9774 7.41367 10.818 7.47876 10.7005 7.5942C10.583 7.70965 10.5171 7.86604 10.5171 8.02907V9.45043C10.5171 9.61347 10.583 9.76985 10.7005 9.8853C10.818 10.0007 10.9774 10.0658 11.1438 10.0663ZM11.4048 8.28307H12.3351V9.19643H11.4048V8.28307Z" fill="#940000"/>
<path d="M14.7132 10.0663H16.1628C16.3293 10.0658 16.4887 10.0008 16.6064 9.88541C16.7241 9.77001 16.7905 9.61363 16.7909 9.45043V8.02907C16.7905 7.86588 16.7241 7.7095 16.6064 7.5941C16.4887 7.4787 16.3293 7.41367 16.1628 7.41321H14.7132C14.5468 7.41367 14.3873 7.4787 14.2696 7.5941C14.1519 7.7095 14.0856 7.86588 14.0851 8.02907V9.45043C14.0856 9.61363 14.1519 9.77001 14.2696 9.88541C14.3873 10.0008 14.5468 10.0658 14.7132 10.0663ZM14.9723 8.28307H15.9038V9.19643H14.9723V8.28307Z" fill="#940000"/>
<path d="M7.57385 13.5319H9.02614C9.19252 13.5314 9.35193 13.4665 9.46941 13.3514C9.5869 13.2362 9.65287 13.0802 9.65287 12.9176V11.5C9.65381 11.4189 9.6383 11.3384 9.60725 11.2632C9.57619 11.188 9.53021 11.1195 9.47194 11.0618C9.41367 11.004 9.34428 10.9581 9.26776 10.9267C9.19125 10.8953 9.10913 10.879 9.02614 10.8788H7.57385C7.40747 10.8792 7.24806 10.9442 7.13058 11.0593C7.01309 11.1745 6.94712 11.3304 6.94712 11.493V12.9107C6.94618 12.9918 6.96169 13.0723 6.99274 13.1475C7.0238 13.2227 7.06978 13.2911 7.12805 13.3489C7.18632 13.4067 7.25571 13.4526 7.33223 13.484C7.40874 13.5154 7.49086 13.5317 7.57385 13.5319ZM7.83483 11.7464H8.76516V12.6573H7.83483V11.7464Z" fill="#940000"/>
<path d="M4.00338 13.5319H5.45568C5.62206 13.5314 5.78146 13.4665 5.89895 13.3514C6.01643 13.2362 6.0824 13.0802 6.0824 12.9176V11.5C6.08334 11.4189 6.06784 11.3384 6.03678 11.2632C6.00573 11.188 5.95974 11.1195 5.90147 11.0618C5.84321 11.004 5.77381 10.9581 5.6973 10.9267C5.62079 10.8953 5.53867 10.879 5.45568 10.8788H4.00338C3.837 10.8792 3.6776 10.9442 3.56011 11.0593C3.44263 11.1745 3.37666 11.3304 3.37666 11.493V12.9107C3.37572 12.9918 3.39122 13.0723 3.42228 13.1475C3.45333 13.2227 3.49932 13.2911 3.55759 13.3489C3.61585 13.4067 3.68525 13.4526 3.76176 13.484C3.83827 13.5154 3.92039 13.5317 4.00338 13.5319ZM4.26437 11.7464H5.19469V12.6573H4.26437V11.7464Z" fill="#940000"/>
<path d="M7.57383 16.9973H9.02617C9.19255 16.9969 9.35196 16.9316 9.46945 16.8159C9.58693 16.7001 9.65291 16.5433 9.65291 16.3798V14.9547C9.65104 14.7925 9.58424 14.6375 9.46696 14.5232C9.34967 14.409 9.19133 14.3447 9.02617 14.3442H7.57383C7.40744 14.3447 7.24803 14.41 7.13054 14.5257C7.01306 14.6415 6.94708 14.7983 6.94708 14.9617V16.3868C6.94895 16.5491 7.01575 16.7041 7.13303 16.8183C7.25032 16.9326 7.40866 16.9969 7.57383 16.9973ZM7.83482 15.2164H8.76517V16.1322H7.83482V15.2164Z" fill="#940000"/>
<path d="M4.00336 16.9973H5.4557C5.62209 16.9969 5.7815 16.9316 5.89898 16.8159C6.01647 16.7001 6.08244 16.5433 6.08244 16.3798V14.9547C6.08058 14.7925 6.01378 14.6375 5.89649 14.5232C5.77921 14.409 5.62086 14.3447 5.4557 14.3442H4.00336C3.8382 14.3447 3.67985 14.409 3.56257 14.5232C3.44528 14.6375 3.37848 14.7925 3.37662 14.9547V16.3798C3.37662 16.5433 3.44259 16.7001 3.56008 16.8159C3.67756 16.9316 3.83697 16.9969 4.00336 16.9973ZM4.26436 15.2164H5.1947V16.1322H4.26436V15.2164Z" fill="#940000"/>
<path d="M11.1438 13.5319H12.5961C12.7625 13.5314 12.9219 13.4665 13.0394 13.3514C13.1569 13.2362 13.2228 13.0802 13.2228 12.9176V11.5C13.2238 11.4189 13.2083 11.3384 13.1772 11.2632C13.1462 11.188 13.1002 11.1195 13.0419 11.0618C12.9836 11.004 12.9143 10.9581 12.8377 10.9267C12.7612 10.8953 12.6791 10.879 12.5961 10.8788H11.1438C10.9774 10.8792 10.818 10.9442 10.7006 11.0593C10.5831 11.1745 10.5171 11.3304 10.5171 11.493V12.9107C10.5162 12.9918 10.5317 13.0723 10.5627 13.1475C10.5938 13.2227 10.6398 13.2911 10.698 13.3489C10.7563 13.4067 10.8257 13.4526 10.9022 13.484C10.9787 13.5154 11.0608 13.5317 11.1438 13.5319ZM11.4048 11.7464H12.3351V12.6573H11.4048V11.7464Z" fill="#940000"/>
<path d="M14.7132 13.5319H16.1628C16.3293 13.5314 16.4888 13.4666 16.6065 13.3515C16.7242 13.2364 16.7905 13.0804 16.7909 12.9176V11.5C16.7916 11.4188 16.7759 11.3383 16.7447 11.2631C16.7135 11.1878 16.6673 11.1194 16.609 11.0617C16.5506 11.0039 16.4811 10.958 16.4046 10.9267C16.328 10.8953 16.2459 10.879 16.1628 10.8788H14.7132C14.5468 10.8792 14.3873 10.9441 14.2696 11.0592C14.1519 11.1743 14.0856 11.3303 14.0851 11.493V12.9107C14.0844 12.9919 14.1001 13.0724 14.1314 13.1476C14.1626 13.2228 14.2087 13.2913 14.2671 13.349C14.3255 13.4067 14.3949 13.4526 14.4715 13.484C14.5481 13.5154 14.6302 13.5316 14.7132 13.5319ZM14.9723 11.7464H15.9038V12.6573H14.9723V11.7464Z" fill="#940000"/>
</svg>
