<svg width="59" height="59" viewBox="0 0 59 59" fill="none" xmlns="http://www.w3.org/2000/svg">
<g filter="url(#filter0_d_11_375)">
<path d="M34.8361 11H20.1644C18.2649 11.002 16.4438 11.7575 15.1006 13.1006C13.7575 14.4438 13.002 16.2649 13 18.1644V32.8356C13.002 34.7351 13.7575 36.5562 15.1006 37.8994C16.4438 39.2425 18.2649 39.998 20.1644 40H34.8361C36.7355 39.998 38.5566 39.2425 39.8996 37.8993C41.2427 36.5562 41.9981 34.7351 42 32.8356V18.1644C41.9981 16.2649 41.2427 14.4438 39.8996 13.1007C38.5566 11.7575 36.7355 11.002 34.8361 11ZM39.2473 32.8356C39.2459 34.0052 38.7808 35.1266 37.9539 35.9537C37.1269 36.7808 36.0057 37.2462 34.8361 37.2477H20.1644C18.9947 37.2463 17.8733 36.781 17.0463 35.9538C16.2193 35.1267 15.7541 34.0053 15.7527 32.8356V18.1644C15.7541 16.9947 16.2193 15.8733 17.0463 15.0462C17.8733 14.219 18.9947 13.7537 20.1644 13.7523H34.8361C36.0057 13.7538 37.1269 14.2192 37.9539 15.0463C38.7808 15.8734 39.2459 16.9948 39.2473 18.1644V32.8356Z" fill="black"/>
<path d="M27.5003 18.5944C26.1345 18.5944 24.7994 18.9995 23.6638 19.7584C22.5283 20.5172 21.6432 21.5958 21.1206 22.8576C20.598 24.1195 20.4613 25.508 20.7278 26.8475C20.9943 28.187 21.6521 29.4174 22.6179 30.3832C23.5837 31.3489 24.8141 32.0065 26.1537 32.273C27.4932 32.5394 28.8817 32.4026 30.1435 31.8799C31.4053 31.3572 32.4838 30.4721 33.2426 29.3365C34.0013 28.2009 34.4063 26.8658 34.4063 25.5C34.4043 23.669 33.676 21.9137 32.3813 20.6191C31.0866 19.3244 29.3312 18.5963 27.5003 18.5944ZM27.5003 29.6533C26.6788 29.6532 25.8759 29.4096 25.1929 28.9531C24.51 28.4967 23.9777 27.848 23.6634 27.0891C23.3491 26.3302 23.2669 25.4951 23.4272 24.6894C23.5875 23.8838 23.9831 23.1438 24.564 22.563C25.1449 21.9822 25.885 21.5866 26.6906 21.4264C27.4963 21.2662 28.3313 21.3485 29.0902 21.6628C29.8491 21.9772 30.4978 22.5096 30.9541 23.1926C31.4105 23.8756 31.6541 24.6786 31.6541 25.5C31.653 26.6013 31.215 27.6571 30.4362 28.4358C29.6575 29.2145 28.6016 29.6524 27.5003 29.6533Z" fill="black"/>
<path d="M34.6892 16.4683C34.3246 16.4682 33.9682 16.5762 33.665 16.7787C33.3618 16.9812 33.1255 17.269 32.9859 17.6059C32.8463 17.9427 32.8097 18.3133 32.8808 18.6709C32.9519 19.0285 33.1274 19.357 33.3852 19.6148C33.643 19.8727 33.9714 20.0483 34.329 20.1194C34.6866 20.1906 35.0572 20.1541 35.3941 20.0146C35.7309 19.8751 36.0188 19.6389 36.2214 19.3357C36.424 19.0326 36.5321 18.6762 36.5321 18.3116C36.5321 17.8228 36.3379 17.354 35.9924 17.0083C35.6468 16.6626 35.178 16.4684 34.6892 16.4683Z" fill="black"/>
</g>
<defs>
<filter id="filter0_d_11_375" x="0" y="0" width="59" height="59" filterUnits="userSpaceOnUse" color-interpolation-filters="sRGB">
<feFlood flood-opacity="0" result="BackgroundImageFix"/>
<feColorMatrix in="SourceAlpha" type="matrix" values="0 0 0 0 0 0 0 0 0 0 0 0 0 0 0 0 0 0 127 0" result="hardAlpha"/>
<feOffset dx="2" dy="4"/>
<feGaussianBlur stdDeviation="7.5"/>
<feComposite in2="hardAlpha" operator="out"/>
<feColorMatrix type="matrix" values="0 0 0 0 0 0 0 0 0 0 0 0 0 0 0 0 0 0 0.35 0"/>
<feBlend mode="normal" in2="BackgroundImageFix" result="effect1_dropShadow_11_375"/>
<feBlend mode="normal" in="SourceGraphic" in2="effect1_dropShadow_11_375" result="shape"/>
</filter>
</defs>
</svg>
