<svg width="17" height="16" viewBox="0 0 17 16" fill="none" xmlns="http://www.w3.org/2000/svg">
<path d="M11.688 8.54367C12.4294 7.89865 12.952 7.04987 13.1867 6.10964C13.4213 5.16942 13.3568 4.18206 13.0019 3.27822C12.6469 2.37439 12.0182 1.59668 11.1989 1.04801C10.3795 0.499339 9.40819 0.205566 8.41343 0.205566C7.41866 0.205566 6.44735 0.499339 5.628 1.04801C4.80866 1.59668 4.17991 2.37439 3.82496 3.27822C3.47001 4.18206 3.40558 5.16942 3.6402 6.10964C3.87483 7.04987 4.39744 7.89865 5.1389 8.54367C3.76719 9.01082 2.57842 9.88064 1.73672 11.033C0.895025 12.1854 0.441911 13.5635 0.439941 14.9771C0.439941 15.1939 0.52849 15.4018 0.686107 15.5551C0.843725 15.7084 1.0575 15.7946 1.2804 15.7946C1.50331 15.7946 1.71708 15.7084 1.8747 15.5551C2.03232 15.4018 2.12087 15.1939 2.12087 14.9771C2.12231 13.6007 2.68512 12.2811 3.68578 11.3078C4.68644 10.3346 6.04321 9.78717 7.45836 9.78576H9.39033C10.8055 9.78717 12.1622 10.3346 13.1629 11.3078C14.1636 12.2811 14.7264 13.6007 14.7278 14.9771C14.7278 15.1939 14.8164 15.4018 14.974 15.5551C15.1316 15.7084 15.3454 15.7946 15.5683 15.7946C15.7912 15.7946 16.005 15.7084 16.1626 15.5551C16.3202 15.4018 16.4087 15.1939 16.4087 14.9771C16.4052 13.561 15.9489 12.1809 15.1031 11.0283C14.2572 9.87556 13.0637 9.00727 11.688 8.54367ZM8.41343 1.88198C9.0492 1.88198 9.67069 2.06534 10.1993 2.40889C10.7279 2.75243 11.1399 3.24072 11.3832 3.81201C11.6265 4.3833 11.6902 5.01193 11.5662 5.61841C11.4421 6.22488 11.136 6.78197 10.6864 7.21921C10.2369 7.65646 9.6641 7.95423 9.04055 8.07487C8.41699 8.1955 7.77066 8.13359 7.18329 7.89695C6.59592 7.66032 6.09388 7.25959 5.74067 6.74544C5.38746 6.23129 5.19893 5.62682 5.19893 5.00846C5.19893 4.59788 5.28207 4.19133 5.44362 3.81201C5.60516 3.43268 5.84194 3.08802 6.14043 2.7977C6.74327 2.21137 7.56089 1.88198 8.41343 1.88198Z" fill="#940000"/>
</svg>
