<svg width="20" height="19" viewBox="0 0 20 19" fill="none" xmlns="http://www.w3.org/2000/svg">
<path d="M18.0744 2.1992H16.3231V1.31368C16.3226 1.09096 16.2322 0.877497 16.0716 0.720012C15.911 0.562526 15.6933 0.473848 15.4661 0.473389H14.1833C13.956 0.473389 13.738 0.561919 13.5773 0.719504C13.4166 0.877089 13.3263 1.09082 13.3263 1.31368V2.1992H6.51295V1.31368C6.51248 1.09096 6.42204 0.877497 6.26142 0.720012C6.10081 0.562526 5.8831 0.473848 5.65596 0.473389H4.37313C4.14599 0.473848 3.92828 0.562526 3.76766 0.720012C3.60705 0.877497 3.51661 1.09096 3.51614 1.31368V2.1992H1.76489C1.45713 2.1992 1.16198 2.31908 0.944365 2.53245C0.726748 2.74583 0.604492 3.03523 0.604492 3.33699L0.604492 17.5228C0.605428 17.8242 0.727985 18.1131 0.945399 18.3263C1.16281 18.5395 1.45742 18.6596 1.76489 18.6605H18.0744C18.3818 18.6596 18.6764 18.5395 18.8939 18.3263C19.1113 18.1131 19.2338 17.8242 19.2348 17.5228V3.33699C19.2348 3.03523 19.1125 2.74583 18.8949 2.53245C18.6773 2.31908 18.3821 2.1992 18.0744 2.1992ZM14.2135 1.34325H15.436V3.92502H14.2135V1.34325ZM4.40329 1.34325H5.62579V3.92502H4.40329V1.34325ZM1.49165 3.33699C1.49165 3.26593 1.52044 3.19778 1.57168 3.14754C1.62292 3.0973 1.69242 3.06907 1.76489 3.06907H3.51614V3.95285C3.51614 4.17587 3.60637 4.38978 3.76704 4.54764C3.9277 4.7055 4.14568 4.79442 4.37313 4.79488H5.65596C5.88341 4.79442 6.10138 4.7055 6.26205 4.54764C6.42272 4.38978 6.51295 4.17587 6.51295 3.95285V3.06907H13.3263V3.95285C13.3263 4.17587 13.4165 4.38978 13.5772 4.54764C13.7379 4.7055 13.9558 4.79442 14.1833 4.79488H15.4661C15.6936 4.79442 15.9116 4.7055 16.0722 4.54764C16.2329 4.38978 16.3231 4.17587 16.3231 3.95285V3.06907H18.0744C18.1468 3.06907 18.2163 3.0973 18.2676 3.14754C18.3188 3.19778 18.3476 3.26593 18.3476 3.33699V5.78479H1.49165V3.33699ZM18.3476 17.5228C18.3476 17.5579 18.3405 17.5928 18.3268 17.6253C18.3131 17.6578 18.2929 17.6873 18.2676 17.7122C18.2422 17.7371 18.2121 17.7568 18.1789 17.7703C18.1458 17.7837 18.1102 17.7907 18.0744 17.7907H1.76489C1.72901 17.7907 1.69348 17.7837 1.66033 17.7703C1.62717 17.7568 1.59705 17.7371 1.57168 17.7122C1.54631 17.6873 1.52618 17.6578 1.51245 17.6253C1.49872 17.5928 1.49165 17.5579 1.49165 17.5228V6.65639H18.3476V17.5228Z" fill="#940000"/>
<path d="M7.4098 10.0663H8.86214C9.02853 10.0658 9.18794 10.0007 9.30542 9.8853C9.42291 9.76985 9.48888 9.61347 9.48888 9.45043V8.02907C9.48888 7.86604 9.42291 7.70965 9.30542 7.5942C9.18794 7.47876 9.02853 7.41367 8.86214 7.41321H7.4098C7.24342 7.41367 7.08401 7.47876 6.96652 7.5942C6.84903 7.70965 6.78306 7.86604 6.78306 8.02907V9.45043C6.78306 9.61347 6.84903 9.76985 6.96652 9.8853C7.08401 10.0007 7.24342 10.0658 7.4098 10.0663ZM7.6708 8.28307H8.60115V9.19643H7.6708V8.28307Z" fill="#940000"/>
<path d="M10.9788 10.0663H12.4311C12.5975 10.0658 12.7569 10.0007 12.8744 9.8853C12.9919 9.76985 13.0579 9.61347 13.0579 9.45043V8.02907C13.0579 7.86604 12.9919 7.70965 12.8744 7.5942C12.7569 7.47876 12.5975 7.41367 12.4311 7.41321H10.9788C10.8124 7.41367 10.653 7.47876 10.5355 7.5942C10.418 7.70965 10.3521 7.86604 10.3521 8.02907V9.45043C10.3521 9.61347 10.418 9.76985 10.5355 9.8853C10.653 10.0007 10.8124 10.0658 10.9788 10.0663ZM11.2398 8.28307H12.1702V9.19643H11.2398V8.28307Z" fill="#940000"/>
<path d="M14.5492 10.0663H15.9988C16.1652 10.0658 16.3247 10.0008 16.4424 9.88541C16.5601 9.77001 16.6264 9.61363 16.6269 9.45043V8.02907C16.6264 7.86588 16.5601 7.7095 16.4424 7.5941C16.3247 7.4787 16.1652 7.41367 15.9988 7.41321H14.5492C14.3827 7.41367 14.2232 7.4787 14.1056 7.5941C13.9879 7.7095 13.9215 7.86588 13.9211 8.02907V9.45043C13.9215 9.61363 13.9879 9.77001 14.1056 9.88541C14.2232 10.0008 14.3827 10.0658 14.5492 10.0663ZM14.8082 8.28307H15.7397V9.19643H14.8082V8.28307Z" fill="#940000"/>
<path d="M7.40933 13.5319H8.86163C9.02801 13.5314 9.18742 13.4665 9.3049 13.3514C9.42238 13.2362 9.48836 13.0802 9.48836 12.9176V11.5C9.48929 11.4189 9.47379 11.3384 9.44273 11.2632C9.41168 11.188 9.36569 11.1195 9.30743 11.0618C9.24916 11.004 9.17977 10.9581 9.10325 10.9267C9.02674 10.8953 8.94462 10.879 8.86163 10.8788H7.40933C7.24295 10.8792 7.08355 10.9442 6.96607 11.0593C6.84858 11.1745 6.78261 11.3304 6.78261 11.493V12.9107C6.78167 12.9918 6.79718 13.0723 6.82823 13.1475C6.85928 13.2227 6.90527 13.2911 6.96354 13.3489C7.02181 13.4067 7.0912 13.4526 7.16771 13.484C7.24423 13.5154 7.32635 13.5317 7.40933 13.5319ZM7.67032 11.7464H8.60064V12.6573H7.67032V11.7464Z" fill="#940000"/>
<path d="M3.83935 13.5319H5.29165C5.45803 13.5314 5.61744 13.4665 5.73492 13.3514C5.8524 13.2362 5.91838 13.0802 5.91837 12.9176V11.5C5.91931 11.4189 5.90381 11.3384 5.87275 11.2632C5.8417 11.188 5.79571 11.1195 5.73745 11.0618C5.67918 11.004 5.60979 10.9581 5.53327 10.9267C5.45676 10.8953 5.37464 10.879 5.29165 10.8788H3.83935C3.67297 10.8792 3.51357 10.9442 3.39608 11.0593C3.2786 11.1745 3.21263 11.3304 3.21263 11.493V12.9107C3.21169 12.9918 3.2272 13.0723 3.25825 13.1475C3.2893 13.2227 3.33529 13.2911 3.39356 13.3489C3.45183 13.4067 3.52122 13.4526 3.59773 13.484C3.67425 13.5154 3.75637 13.5317 3.83935 13.5319ZM4.10034 11.7464H5.03066V12.6573H4.10034V11.7464Z" fill="#940000"/>
<path d="M7.4098 16.9973H8.86214C9.02853 16.9969 9.18794 16.9316 9.30542 16.8159C9.42291 16.7001 9.48888 16.5433 9.48888 16.3798V14.9547C9.48702 14.7925 9.42022 14.6375 9.30293 14.5232C9.18565 14.409 9.0273 14.3447 8.86214 14.3442H7.4098C7.24342 14.3447 7.08401 14.41 6.96652 14.5257C6.84903 14.6415 6.78306 14.7983 6.78306 14.9617V16.3868C6.78492 16.5491 6.85172 16.7041 6.96901 16.8183C7.08629 16.9326 7.24464 16.9969 7.4098 16.9973ZM7.6708 15.2164H8.60115V16.1322H7.6708V15.2164Z" fill="#940000"/>
<path d="M3.83933 16.9973H5.29167C5.45806 16.9969 5.61747 16.9316 5.73495 16.8159C5.85244 16.7001 5.91842 16.5433 5.91841 16.3798V14.9547C5.91655 14.7925 5.84975 14.6375 5.73246 14.5232C5.61518 14.409 5.45683 14.3447 5.29167 14.3442H3.83933C3.67417 14.3447 3.51582 14.409 3.39854 14.5232C3.28125 14.6375 3.21445 14.7925 3.21259 14.9547V16.3798C3.21259 16.5433 3.27856 16.7001 3.39605 16.8159C3.51354 16.9316 3.67295 16.9969 3.83933 16.9973ZM4.10033 15.2164H5.03068V16.1322H4.10033V15.2164Z" fill="#940000"/>
<path d="M10.9788 13.5319H12.4311C12.5975 13.5314 12.7569 13.4665 12.8744 13.3514C12.9919 13.2362 13.0578 13.0802 13.0578 12.9176V11.5C13.0588 11.4189 13.0433 11.3384 13.0122 11.2632C12.9812 11.188 12.9352 11.1195 12.8769 11.0618C12.8187 11.004 12.7493 10.9581 12.6727 10.9267C12.5962 10.8953 12.5141 10.879 12.4311 10.8788H10.9788C10.8124 10.8792 10.653 10.9442 10.5356 11.0593C10.4181 11.1745 10.3521 11.3304 10.3521 11.493V12.9107C10.3512 12.9918 10.3667 13.0723 10.3977 13.1475C10.4288 13.2227 10.4748 13.2911 10.533 13.3489C10.5913 13.4067 10.6607 13.4526 10.7372 13.484C10.8137 13.5154 10.8958 13.5317 10.9788 13.5319ZM11.2398 11.7464H12.1701V12.6573H11.2398V11.7464Z" fill="#940000"/>
<path d="M14.5492 13.5319H15.9988C16.1652 13.5314 16.3247 13.4666 16.4424 13.3515C16.5601 13.2364 16.6264 13.0804 16.6269 12.9176V11.5C16.6276 11.4188 16.6119 11.3383 16.5807 11.2631C16.5494 11.1878 16.5033 11.1194 16.4449 11.0617C16.3866 11.0039 16.3171 10.958 16.2405 10.9267C16.164 10.8953 16.0818 10.879 15.9988 10.8788H14.5492C14.3828 10.8792 14.2233 10.9441 14.1056 11.0592C13.9879 11.1743 13.9216 11.3303 13.9211 11.493V12.9107C13.9204 12.9919 13.9361 13.0724 13.9673 13.1476C13.9986 13.2228 14.0447 13.2913 14.1031 13.349C14.1614 13.4067 14.2309 13.4526 14.3075 13.484C14.384 13.5154 14.4662 13.5316 14.5492 13.5319ZM14.8082 11.7464H15.7398V12.6573H14.8082V11.7464Z" fill="#940000"/>
</svg>
