<svg width="18" height="17" viewBox="0 0 18 17" fill="none" xmlns="http://www.w3.org/2000/svg">
<path d="M8.79633 3.33722C7.71193 3.33722 6.8298 4.19905 6.8298 5.25697C6.8298 6.31558 7.71193 7.1781 8.79633 7.1781C9.88073 7.1781 10.7627 6.31558 10.7627 5.25697C10.7627 4.19905 9.88073 3.33722 8.79633 3.33722Z" fill="#940000"/>
<path d="M8.7953 0.0715942C5.34896 0.0715942 2.6499 2.73183 2.6499 6.12774C2.6499 11.3961 8.39146 14.3114 8.63588 14.432C8.68574 14.456 8.74052 14.4698 8.7953 14.4698C8.85009 14.4698 8.90487 14.456 8.95473 14.432C9.19915 14.31 14.9407 11.3961 14.9407 6.12774C14.9407 2.73183 12.2416 0.0715942 8.7953 0.0715942ZM8.7953 7.86306C7.32392 7.86306 6.12644 6.69406 6.12644 5.2563C6.12644 3.81923 7.32392 2.65092 8.7953 2.65092C10.2667 2.65092 11.464 3.81923 11.464 5.2563C11.464 6.69406 10.2667 7.86306 8.7953 7.86306Z" fill="#940000"/>
<path d="M12.674 12.5481C11.0783 14.1242 9.40952 14.9773 9.27625 15.0443C9.12789 15.1163 8.96284 15.1552 8.79709 15.1552C8.63274 15.1552 8.46699 15.1161 8.32021 15.0443C8.18606 14.9773 6.51592 14.1242 4.91952 12.5466C2.96142 12.7742 0.36911 13.2898 0.36911 14.4266C0.36911 16.083 5.88312 16.5213 8.79709 16.5213C11.7118 16.5213 17.2251 16.083 17.2251 14.4266C17.2244 13.2939 14.5866 12.7756 12.674 12.5481Z" fill="#940000"/>
</svg>
