<svg width="65" height="69" viewBox="0 0 65 69" fill="none" xmlns="http://www.w3.org/2000/svg">
<path d="M26.8423 32.8134C27.4154 33.3865 28.3451 33.3867 28.9184 32.8134C29.5402 32.1915 30.1606 31.5955 30.7775 31.0169C32.7018 32.7406 34.5519 34.3737 36.4506 36.2722C37.0236 36.8452 37.9533 36.8453 38.5269 36.2722C45.6657 29.1333 53.2337 24.7932 53.2337 16.8924C53.2337 12.1469 49.3728 8.28595 44.6272 8.28595C43.7179 8.28595 42.8921 8.38784 42.1322 8.59513C40.5812 6.32239 37.9717 4.82715 35.0186 4.82715C31.5629 4.82715 29.4969 6.30991 27.8802 8.70172C26.2637 6.30991 24.1975 4.82715 20.7418 4.82715C15.9917 4.82715 12.1271 8.68806 12.1271 13.4336C12.1272 21.3374 19.7127 25.6841 26.8423 32.8134ZM50.2974 16.8924C50.2974 22.9258 44.0964 26.8117 37.4887 33.1776C35.9733 31.7179 34.5083 30.4151 32.9538 29.0244C38.4146 24.115 43.6251 19.9315 43.6251 13.4336C43.6251 12.7072 43.5338 12.002 43.3635 11.3277C47.2636 10.6274 50.2974 13.4858 50.2974 16.8924ZM20.7419 7.76332C23.4325 7.76332 24.8479 8.86702 26.5673 12.3056C27.1077 13.3861 28.6534 13.3856 29.1936 12.3056C30.9128 8.86702 32.3283 7.76332 35.0188 7.76332C38.1453 7.76332 40.6891 10.3071 40.6891 13.4336C40.6891 19.4697 34.4792 23.3613 27.8803 29.7188C21.2776 23.3588 15.0634 19.4679 15.0634 13.4336C15.0634 10.3071 17.6108 7.76332 20.7419 7.76332Z" fill="#940000"/>
<path d="M21.2059 12.9465C22.0167 12.9465 22.674 12.2893 22.674 11.4785C22.674 10.6676 22.0167 10.0104 21.2059 10.0104C18.6284 10.0104 16.5315 12.1056 16.5315 14.6809C16.5315 15.4918 17.1888 16.149 17.9996 16.149C18.8104 16.149 19.4677 15.4918 19.4677 14.6809C19.4677 13.7245 20.2475 12.9465 21.2059 12.9465Z" fill="#940000"/>
<path d="M59.2986 37.057C57.7905 37.057 56.3719 37.641 55.3013 38.7018L43.8446 49.4086C43.0276 47.8057 41.4268 46.6706 39.556 46.5037L12.4151 43.5227C11.9716 43.4739 11.5316 43.6292 11.2167 43.9439C10.0466 45.114 0.452555 54.7078 0.4298 54.7307C-0.143193 55.304 -0.14334 56.2334 0.4298 56.807L12.193 68.57C12.7664 69.1433 13.6957 69.1432 14.2691 68.57L17.0799 65.7597L42.6824 66.7214C43.0903 66.7373 43.4868 66.5814 43.7756 66.2924L63.3147 46.7528C64.3876 45.6801 64.9784 44.254 64.9784 42.7369C64.9784 39.598 62.4381 37.057 59.2986 37.057ZM61.2386 44.6765L42.1523 63.7631L16.5499 62.8013C16.1411 62.7847 15.7456 62.9414 15.4568 63.2303L13.2312 65.4556L3.54419 55.7688L6.05447 53.2585L12.5573 59.7614C13.1308 60.3347 14.0602 60.3345 14.6337 59.7614C15.2069 59.1881 15.2069 58.2585 14.6337 57.6851L8.13078 51.1823L12.7949 46.5182C40.2441 49.5328 39.2562 49.4249 39.2869 49.4274C40.4277 49.525 41.3474 50.422 41.4738 51.5601C41.6357 53.0174 40.4655 54.2917 38.9771 54.2309L24.0824 53.5766C23.2729 53.5399 22.5869 54.1688 22.5513 54.9789C22.5157 55.789 23.1436 56.4745 23.9535 56.51L38.849 57.1643C41.4262 57.278 43.719 55.5289 44.2912 53.0099C57.8946 40.2965 57.3192 40.836 57.3587 40.7967C57.8768 40.2786 58.5659 39.993 59.2986 39.993C60.8146 39.993 62.0422 41.2202 62.0422 42.7366C62.0422 43.4696 61.7568 44.1584 61.2386 44.6765Z" fill="#940000"/>
<path d="M3.31855 16.1489C4.12935 16.1489 4.78663 15.4917 4.78663 14.6809C4.78663 13.8701 4.12935 13.2128 3.31855 13.2128C2.50775 13.2128 1.85046 13.8701 1.85046 14.6809C1.85046 15.4917 2.50775 16.1489 3.31855 16.1489Z" fill="#940000"/>
<path d="M48.8298 2.93617C49.6406 2.93617 50.2979 2.27888 50.2979 1.46808C50.2979 0.657284 49.6406 0 48.8298 0C48.019 0 47.3617 0.657284 47.3617 1.46808C47.3617 2.27888 48.019 2.93617 48.8298 2.93617Z" fill="#940000"/>
<path d="M50.2973 35.234C51.1081 35.234 51.7654 34.5767 51.7654 33.7659C51.7654 32.9551 51.1081 32.2979 50.2973 32.2979C49.4865 32.2979 48.8292 32.9551 48.8292 33.7659C48.8292 34.5767 49.4865 35.234 50.2973 35.234Z" fill="#940000"/>
<path d="M25.3398 38.1702C26.1506 38.1702 26.8079 37.5129 26.8079 36.7021C26.8079 35.8913 26.1506 35.234 25.3398 35.234C24.529 35.234 23.8717 35.8913 23.8717 36.7021C23.8717 37.5129 24.529 38.1702 25.3398 38.1702Z" fill="#940000"/>
<path d="M15.0633 2.93617C15.8741 2.93617 16.5314 2.27888 16.5314 1.46808C16.5314 0.657284 15.8741 0 15.0633 0C14.2525 0 13.5952 0.657284 13.5952 1.46808C13.5952 2.27888 14.2525 2.93617 15.0633 2.93617Z" fill="#940000"/>
<path d="M56.9668 13.1498L59.536 15.7189C60.1093 16.2922 61.0387 16.2922 61.6123 15.7189C62.1856 15.1456 62.1856 14.216 61.6123 13.6426L60.0812 12.1117L61.6123 10.5806C62.1856 10.0073 62.1856 9.07773 61.6123 8.50429L60.0812 6.97338L61.6123 5.44231C62.1856 4.86902 62.1856 3.93943 61.6123 3.366C61.0389 2.79271 60.1096 2.79271 59.536 3.366L56.9668 5.93515C56.3935 6.50843 56.3935 7.43802 56.9668 8.01146L58.4979 9.54252L56.9668 11.0736C56.3935 11.6469 56.3935 12.5765 56.9668 13.1498Z" fill="#940000"/>
<path d="M3.34739 21.7334C3.1884 22.5285 3.70399 23.3019 4.49896 23.4609L6.7027 23.9016L5.70616 24.8982C4.90018 25.7043 5.28277 27.0841 6.38823 27.3606C10.5112 28.3758 10.3402 28.3834 10.6604 28.3834C11.3182 28.3834 11.9169 27.938 12.0835 27.271C12.2801 26.4844 11.8019 25.6873 11.0153 25.4907L9.61596 25.141L10.7186 24.0383C11.5458 23.2109 11.1174 21.7904 9.96845 21.5606L5.07489 20.5819C4.27992 20.423 3.50638 20.9383 3.34739 21.7334Z" fill="#940000"/>
<path d="M59.1062 32.2978C61.5347 32.2978 63.5104 30.322 63.5104 27.8935C63.5104 25.465 61.5347 23.4893 59.1062 23.4893C56.6777 23.4893 54.7019 25.465 54.7019 27.8935C54.7019 30.322 56.6777 32.2978 59.1062 32.2978ZM59.1062 26.4254C59.9157 26.4254 60.5742 27.084 60.5742 27.8935C60.5742 28.703 59.9157 29.3616 59.1062 29.3616C58.2967 29.3616 57.6381 28.703 57.6381 27.8935C57.6381 27.084 58.2967 26.4254 59.1062 26.4254Z" fill="#940000"/>
<path d="M5.52062 42.5744C8.35387 42.5744 10.6589 40.2694 10.6589 37.4361C10.6589 34.6029 8.35387 32.2979 5.52062 32.2979C2.68736 32.2979 0.382324 34.6029 0.382324 37.4361C0.382324 40.2694 2.68736 42.5744 5.52062 42.5744ZM5.52062 35.234C6.73487 35.234 7.72274 36.2219 7.72274 37.4361C7.72274 38.6504 6.73487 39.6383 5.52062 39.6383C4.30637 39.6383 3.31849 38.6504 3.31849 37.4361C3.31849 36.2219 4.30637 35.234 5.52062 35.234Z" fill="#940000"/>
</svg>
